<mxfile host="app.diagrams.net" modified="2023-03-31T07:48:23.761Z" agent="5.0 (Macintosh; Intel Mac OS X 10_15_7) AppleWebKit/537.36 (KHTML, like Gecko) Chrome/111.0.0.0 Safari/537.36" etag="EapJYajDqRaytIWczusN" version="21.0.8" type="github">
  <diagram id="prtHgNgQTEPvFCAcTncT" name="Page-1">
    <mxGraphModel dx="1434" dy="771" grid="1" gridSize="10" guides="1" tooltips="1" connect="1" arrows="1" fold="1" page="1" pageScale="1" pageWidth="827" pageHeight="1169" math="0" shadow="0">
      <root>
        <mxCell id="0" />
        <mxCell id="1" parent="0" />
        <mxCell id="GRmoUlTZtumbRNJ0ppLS-36" value="" style="rounded=0;whiteSpace=wrap;html=1;sketch=1;curveFitting=1;jiggle=2;fillColor=none;strokeColor=#9673a6;fillStyle=auto;gradientDirection=north;" vertex="1" parent="1">
          <mxGeometry x="100" y="60" width="950" height="700" as="geometry" />
        </mxCell>
        <mxCell id="GRmoUlTZtumbRNJ0ppLS-41" value="" style="rounded=1;whiteSpace=wrap;html=1;fillColor=none;" vertex="1" parent="1">
          <mxGeometry x="720" y="130" width="290" height="360" as="geometry" />
        </mxCell>
        <mxCell id="GRmoUlTZtumbRNJ0ppLS-1" value="词法分析" style="rounded=0;whiteSpace=wrap;html=1;fillStyle=auto;fillColor=#e1d5e7;gradientDirection=north;sketch=1;strokeColor=#9673a6;" vertex="1" parent="1">
          <mxGeometry x="740" y="200" width="120" height="50" as="geometry" />
        </mxCell>
        <mxCell id="GRmoUlTZtumbRNJ0ppLS-6" value="语法分析" style="rounded=0;whiteSpace=wrap;html=1;fillStyle=auto;fillColor=#d5e8d4;gradientDirection=north;sketch=1;strokeColor=#82b366;" vertex="1" parent="1">
          <mxGeometry x="740" y="290" width="120" height="50" as="geometry" />
        </mxCell>
        <mxCell id="GRmoUlTZtumbRNJ0ppLS-37" value="SQL Parser" style="text;strokeColor=none;fillColor=none;html=1;fontSize=24;fontStyle=1;verticalAlign=middle;align=center;" vertex="1" parent="1">
          <mxGeometry x="480" y="60" width="190" height="40" as="geometry" />
        </mxCell>
        <mxCell id="GRmoUlTZtumbRNJ0ppLS-40" value="内存池" style="shape=dataStorage;whiteSpace=wrap;html=1;fixedSize=1;" vertex="1" parent="1">
          <mxGeometry x="740" y="380" width="260" height="70" as="geometry" />
        </mxCell>
        <mxCell id="GRmoUlTZtumbRNJ0ppLS-42" value="PostgreSQL 13.3" style="text;strokeColor=none;fillColor=none;html=1;fontSize=24;fontStyle=1;verticalAlign=middle;align=center;" vertex="1" parent="1">
          <mxGeometry x="770" y="130" width="190" height="40" as="geometry" />
        </mxCell>
        <mxCell id="GRmoUlTZtumbRNJ0ppLS-43" value="数据结构" style="rounded=0;whiteSpace=wrap;html=1;fillStyle=auto;fillColor=#e1d5e7;gradientDirection=north;sketch=1;strokeColor=#9673a6;" vertex="1" parent="1">
          <mxGeometry x="880" y="290" width="120" height="50" as="geometry" />
        </mxCell>
        <mxCell id="GRmoUlTZtumbRNJ0ppLS-44" value="节点类型" style="rounded=0;whiteSpace=wrap;html=1;fillStyle=auto;fillColor=#e1d5e7;gradientDirection=north;sketch=1;strokeColor=#9673a6;" vertex="1" parent="1">
          <mxGeometry x="880" y="200" width="120" height="50" as="geometry" />
        </mxCell>
      </root>
    </mxGraphModel>
  </diagram>
</mxfile>
